<?xml version="1.0" standalone="no"?>
<!DOCTYPE svg PUBLIC "-//W3C//DTD SVG 20010904//EN"
 "http://www.w3.org/TR/2001/REC-SVG-20010904/DTD/svg10.dtd">
<svg version="1.0" xmlns="http://www.w3.org/2000/svg"
 width="913.000000pt" height="266.000000pt" viewBox="0 0 913.000000 266.000000"
 preserveAspectRatio="xMidYMid meet">
<metadata>
Created by potrace 1.15, written by Peter Selinger 2001-2017
</metadata>
<g transform="translate(0.000000,266.000000) scale(0.100000,-0.100000)"
fill="#000000" stroke="none">
<path d="M1695 1864 c-194 -30 -367 -188 -409 -374 -19 -80 -21 -226 -5 -302
31 -151 143 -289 285 -348 70 -29 92 -34 192 -38 67 -3 137 0 175 8 81 16 188
66 255 120 l52 42 -2 207 -3 206 -215 0 -215 0 -3 -82 -3 -83 111 0 110 0 0
-74 0 -75 -57 -27 c-122 -59 -276 -40 -355 44 -52 56 -65 83 -83 169 -14 71
-15 86 -1 151 26 123 105 215 210 243 23 6 75 9 116 6 60 -4 88 -12 135 -37
33 -18 70 -41 83 -53 l23 -21 65 66 66 65 -36 41 c-47 52 -122 100 -194 125
-57 19 -230 31 -297 21z"/>
<path d="M4570 1336 l0 -517 118 3 117 3 3 163 2 162 73 0 72 0 100 -165 100
-165 132 0 c73 0 133 3 132 8 -1 8 -2 10 -124 204 -49 78 -91 148 -93 154 -2
6 12 19 31 27 46 22 113 97 139 155 28 64 30 186 4 262 -29 82 -110 159 -201
190 -65 22 -88 24 -337 28 l-268 4 0 -516z m492 294 c110 -31 121 -202 17
-255 -22 -12 -57 -15 -149 -13 -66 2 -120 6 -120 11 0 4 0 66 0 137 l0 130
108 0 c59 0 124 -5 144 -10z"/>
<path d="M7060 1335 l0 -515 115 0 115 0 0 96 0 95 49 52 c27 29 52 50 54 47
3 -3 41 -66 86 -140 44 -74 84 -139 89 -145 12 -15 252 -7 252 8 0 7 -15 35
-33 62 -17 28 -61 96 -97 153 -36 56 -82 128 -102 160 -20 31 -37 62 -37 68
-1 6 53 69 119 140 66 71 120 132 120 137 0 4 -56 7 -124 7 l-125 0 -117 -132
c-64 -73 -121 -134 -125 -136 -5 -2 -10 122 -11 275 l-3 278 -112 3 -113 3 0
-516z"/>
<path d="M3155 1568 c-84 -7 -158 -31 -226 -73 -35 -23 -39 -28 -27 -43 7 -9
31 -39 53 -67 22 -27 41 -52 42 -54 2 -2 31 10 64 27 54 28 72 32 140 32 72 0
81 -2 102 -26 23 -26 34 -54 36 -89 1 -19 -5 -20 -151 -20 -151 0 -154 0 -208
-30 -73 -40 -112 -96 -118 -170 -9 -106 31 -179 122 -228 33 -18 58 -22 131
-22 99 0 149 16 216 67 l36 27 13 -25 c24 -45 76 -68 150 -67 36 0 77 5 92 11
23 10 27 18 33 76 8 75 4 86 -34 86 -48 0 -51 12 -51 179 0 104 -5 174 -15
210 -41 154 -170 219 -400 199z m154 -439 c28 -10 31 -15 31 -54 0 -67 -54
-107 -143 -107 -86 1 -131 58 -92 118 31 47 131 68 204 43z"/>
<path d="M5750 1570 c-169 -21 -297 -145 -320 -313 -20 -143 15 -253 109 -347
82 -83 143 -104 291 -105 110 0 118 1 180 32 102 51 159 114 193 217 22 66 22
206 0 272 -60 180 -229 271 -453 244z m176 -215 c48 -37 69 -88 68 -170 -1
-110 -50 -177 -139 -191 -134 -20 -226 100 -195 251 14 67 56 117 113 134 46
14 117 3 153 -24z"/>
<path d="M6603 1568 c-88 -9 -158 -42 -218 -103 -72 -72 -105 -158 -105 -275
0 -163 72 -285 210 -356 51 -27 63 -29 175 -29 108 0 125 3 175 26 30 14 70
38 88 53 30 26 89 113 81 120 -2 2 -41 22 -86 45 l-83 41 -31 -35 c-39 -42
-86 -59 -151 -53 -61 6 -96 31 -125 88 -38 74 -26 186 24 243 21 22 70 45 103
48 72 4 89 -1 135 -45 l46 -43 77 40 c42 22 79 41 81 43 11 10 -29 71 -76 114
-78 72 -171 94 -320 78z"/>
<path d="M2701 1544 c-32 -17 -64 -42 -80 -65 -14 -21 -29 -38 -33 -39 -4 0
-8 26 -10 58 l-3 57 -101 3 -102 3 -6 -158 c-3 -87 -4 -219 -2 -293 2 -74 5
-170 5 -212 l1 -78 110 0 110 0 0 200 c0 151 4 209 14 235 21 50 83 86 169 99
l72 11 0 100 0 100 -45 3 c-33 2 -59 -4 -99 -24z"/>
<path d="M3610 1552 c0 -5 10 -28 22 -53 21 -44 94 -207 203 -454 31 -71 68
-153 82 -182 l26 -52 -20 -33 c-27 -46 -64 -62 -121 -52 -26 4 -51 8 -57 9
-12 0 -33 -85 -34 -140 -1 -38 2 -42 32 -53 45 -16 166 -15 215 2 106 38 151
90 221 257 24 57 71 167 104 244 32 77 75 178 93 225 19 47 38 94 43 105 19
42 71 174 71 179 0 3 -52 6 -115 6 l-114 0 -14 -27 c-8 -16 -26 -62 -40 -103
-15 -41 -45 -127 -68 -190 -22 -63 -46 -132 -52 -153 -7 -21 -16 -38 -22 -37
-8 2 -117 264 -145 350 -4 14 -22 55 -39 93 l-30 67 -121 0 c-66 0 -120 -4
-120 -8z"/>
<path d="M7916 949 c-58 -45 -21 -139 55 -139 75 0 110 89 55 137 -34 29 -75
30 -110 2z m99 -13 c24 -17 23 -73 -2 -92 -22 -17 -75 -18 -91 -2 -19 19 -15
85 6 97 24 15 65 13 87 -3z"/>
<path d="M7939 923 c0 -5 -2 -20 -4 -35 -4 -31 12 -48 21 -24 8 22 19 20 33
-6 l12 -23 -5 24 c-3 14 0 31 5 38 6 6 8 17 4 23 -7 11 -65 14 -66 3z"/>
</g>
</svg>
